<svg width="55" height="55" viewBox="0 0 55 55" fill="none" xmlns="http://www.w3.org/2000/svg">
<rect width="55" height="55" fill="#1C1FC2"/>
<path d="M34.375 20.625L25.2083 29.7917L20.625 25.2083M45.8333 23.2949C45.8333 38.3472 34.4482 45.0956 29.6216 47.2803L29.6155 47.2829C29.1079 47.5127 28.8534 47.6279 28.2766 47.7269C27.9113 47.7896 27.091 47.7896 26.7257 47.7269C26.1466 47.6275 25.8895 47.5119 25.3778 47.2803C20.5512 45.0956 9.16667 38.3471 9.16667 23.2949V14.2088C9.16667 11.6419 9.16667 10.3575 9.66623 9.37703C10.1056 8.51462 10.8063 7.81397 11.6687 7.37455C12.6491 6.875 13.9335 6.875 16.5005 6.875H38.5005C41.0674 6.875 42.349 6.875 43.3295 7.37455C44.1919 7.81397 44.8949 8.51462 45.3343 9.37703C45.8333 10.3565 45.8333 11.6394 45.8333 14.2013V23.2949Z" stroke="white" stroke-width="2" stroke-linecap="round" stroke-linejoin="round"/>
</svg>
